<?xml version="1.0" encoding="UTF-8"?>
<!DOCTYPE svg PUBLIC "-//W3C//DTD SVG 1.1//EN" "http://www.w3.org/Graphics/SVG/1.1/DTD/svg11.dtd">
<!-- Creator: CorelDRAW X7 -->
<svg xmlns="http://www.w3.org/2000/svg" xml:space="preserve" width="3in" height="3in" version="1.1" style="shape-rendering:geometricPrecision; text-rendering:geometricPrecision; image-rendering:optimizeQuality; fill-rule:evenodd; clip-rule:evenodd"
viewBox="0 0 3000 3000"
 xmlns:xlink="http://www.w3.org/1999/xlink">
 <defs>
  <style type="text/css">
   <![CDATA[
    .fil0 {fill:none}
    .fil3 {fill:#FFF212}
    .fil4 {fill:#ED3237}
    .fil2 {fill:#00A859}
    .fil1 {fill:#0098DA}
    .fil7 {fill:#223065}
    .fil8 {fill:#54C0EF}
    .fil5 {fill:#5F259F}
    .fil6 {fill:white}
   ]]>
  </style>
 </defs>
 <g id="Layer_x0020_1">
  <metadata id="CorelCorpID_0Corel-Layer"/>
  <rect class="fil0" width="3000" height="3000"/>
  <g id="_556863528">
   <path class="fil1" d="M611 1382l2 1 -2 -1c-17,-19 -10,-3 -38,-40 -25,-34 -37,-79 -31,-123 4,-28 12,-39 19,-61l33 -55c11,-19 21,-36 32,-55 22,-37 42,-74 64,-112 21,-35 53,-79 27,-131 -24,-48 -79,-57 -98,-77 -37,-25 -81,-50 -127,-32 -22,8 -37,21 -49,38l-95 165c-12,19 -21,37 -32,55 -17,29 -26,61 -29,92l0 40c2,27 10,53 21,77 20,41 46,67 83,92l205 118c5,3 10,7 15,9z"/>
   <path class="fil2" d="M619 728c19,20 74,29 98,77 26,52 -6,96 -27,131 -22,38 -42,75 -64,112 -11,19 -21,36 -32,55l-33 55c13,3 49,30 71,37 43,13 93,0 119,-30 18,-21 120,-205 139,-236 10,-17 73,-130 78,-135 26,-55 83,-91 146,-90 36,1 45,11 64,14l3 2 -3 -2 -3 -1 -2 -2 -103 -59c-97,-54 -163,-117 -280,-87 -53,13 -101,46 -130,90 -8,11 -13,21 -21,34 -7,12 -13,23 -20,35z"/>
   <path class="fil3" d="M561 1158c-7,22 -15,33 -19,61 -6,44 6,89 31,123 28,37 21,21 38,40l2 1c32,14 51,21 86,23 7,0 6,-1 15,-2 59,-3 108,-34 138,-80l36 -61c7,-13 16,-27 23,-40 2,-10 117,-206 125,-219 22,-37 47,-76 25,-130 -10,-24 -22,-36 -39,-48 -8,-7 -43,-28 -54,-32 -5,5 -68,118 -78,135 -19,31 -121,215 -139,236 -26,30 -76,43 -119,30 -22,-7 -58,-34 -71,-37z"/>
   <path class="fil4" d="M968 794c11,4 46,25 54,32 17,12 29,24 39,48 22,54 -3,93 -25,130 -8,13 -123,209 -125,219 5,1 15,7 20,11 40,24 77,43 125,24 51,-20 62,-56 92,-105 16,-29 31,-56 48,-84 16,-27 31,-55 47,-82 18,-30 30,-60 33,-92l0 -32c-1,-11 -3,-22 -6,-34 -12,-43 -48,-91 -89,-109l-3 -2c-19,-3 -28,-13 -64,-14 -63,-1 -120,35 -146,90zm205 -79l2 2c0,-3 1,-2 -2,-2z"/>
  </g>
  <g id="_556862928">
   <g>
    <circle class="fil5" cx="2131" cy="1033" r="418"/>
    <path class="fil6" d="M2297 909l-57 0c-20,-23 -111,-130 -127,-147 -18,-20 -36,-16 -46,-13 -9,3 -45,16 -50,18 -4,3 0,10 0,10l137 132 -205 0c-8,0 -14,7 -14,15l0 17c0,19 15,34 34,34l27 0c0,20 0,98 0,130 0,38 26,115 119,115 29,0 58,-10 65,-13l0 79c0,18 15,33 34,33l36 0c8,0 14,-6 14,-14l0 -330 50 0c8,0 14,-7 14,-15l0 -20c0,-17 -14,-31 -31,-31zm-117 231c-14,9 -35,10 -47,10 -37,0 -56,-23 -56,-43 0,-17 0,-110 0,-132l103 0 0 165z"/>
   </g>
  </g>
  <g id="_556862112">
   <g>
    <path class="fil7" d="M916 2312l0 -83c0,-7 2,-12 6,-16 2,-3 9,-8 15,-8l48 0c10,0 21,10 21,21l0 90c0,5 -4,10 -7,13 -3,3 -9,6 -15,6l-45 0c-13,0 -23,-10 -23,-23zm-90 -412l0 36c0,12 -2,53 2,62 4,12 14,15 27,15l113 0c12,0 25,-2 33,10 5,8 3,14 3,24 0,6 -3,13 -7,16 -7,5 -10,5 -21,5 -28,0 -69,-2 -95,4 -7,1 -13,3 -19,5 -14,5 -21,9 -33,16 -7,4 -15,11 -21,16 -2,2 -5,5 -6,7l-11 14c-7,10 -12,20 -17,33 -3,11 -7,27 -7,42l0 126c0,17 3,30 7,45 12,39 40,67 77,82 17,6 38,10 61,10l181 0c9,0 17,-2 24,-5 6,-2 13,-6 18,-11 5,-4 9,-9 12,-15 3,-6 7,-13 7,-22l0 -397c0,-19 -4,-34 -8,-51 -2,-8 -8,-20 -12,-27 -1,-2 -2,-4 -4,-6 -5,-8 -8,-11 -13,-17 -4,-5 -16,-14 -21,-17 -31,-21 -75,-26 -113,-26l-131 0c-17,0 -26,9 -26,26z"/>
    <path class="fil7" d="M1207 1897l0 227c0,80 46,131 110,147 27,7 69,5 99,5 9,0 15,1 20,5 18,14 7,41 -12,42 -3,0 -6,0 -8,0 -4,0 -4,0 -7,0 -19,1 -41,0 -60,0 -20,0 -39,0 -59,0 -10,0 -20,-1 -27,3 -5,4 -11,10 -11,19l0 104c0,6 3,11 6,14 3,3 9,7 15,7l172 0c42,0 84,-18 111,-50 21,-25 34,-58 34,-92l0 -434c0,-13 -12,-21 -26,-21l-93 0c-33,0 -27,29 -27,50l0 154c0,11 1,28 -2,37 -3,8 -12,15 -23,15l-39 0c-6,0 -11,-1 -15,-4 -4,-2 -7,-6 -9,-10 -3,-8 -2,-27 -2,-37 0,-26 0,-52 0,-78 0,-12 0,-24 0,-37 0,-13 0,-26 0,-39 0,-21 4,-38 -11,-47 -4,-3 -10,-4 -16,-4l-93 0c-9,0 -15,2 -20,6 -5,5 -7,12 -7,18z"/>
    <path class="fil7" d="M560 2146l-63 0 0 -123c0,-2 0,-2 1,-2l59 0c8,0 14,1 19,5 3,3 8,10 8,16l0 83c0,9 -10,21 -24,21zm-211 -252l0 556c0,8 9,20 21,20l105 0c11,0 22,-11 22,-25l0 -152 90 0c37,0 72,-8 100,-32 11,-10 20,-21 27,-34 11,-19 18,-47 18,-72l0 -145c0,-27 -8,-59 -24,-81 -8,-10 -7,-9 -17,-19 -27,-27 -65,-37 -105,-37l-210 0c-9,0 -14,2 -19,6 -4,3 -8,9 -8,15z"/>
   </g>
   <g>
    <path class="fil8" d="M2158 1904c0,-11 0,-17 -5,-23 -4,-6 -10,-9 -20,-9l-97 0c-15,0 -25,9 -25,24l0 550c0,12 10,22 22,22l103 0c9,0 16,-6 20,-12 3,-7 1,-21 1,-31l0 -319c0,-15 -1,-50 2,-62 4,-16 17,-28 36,-28l13 0c19,0 33,12 37,27 3,11 1,48 1,63l0 257c0,10 1,20 1,31 0,11 0,22 0,33 0,10 -1,23 2,30 3,6 10,13 20,13l103 0c9,0 16,-7 19,-13 4,-7 2,-21 2,-30l0 -323c0,-15 -1,-52 2,-62 5,-16 18,-27 38,-27l11 0c19,0 32,12 37,27 3,11 1,48 1,62l0 320c0,17 -2,30 9,39 3,3 7,5 12,5l105 0c11,0 21,-10 21,-21l0 -433c0,-32 -12,-65 -31,-89 -2,-1 -3,-3 -5,-5 -3,-4 -6,-6 -9,-10 -36,-35 -93,-51 -141,-38 -6,1 -10,2 -15,4 -3,1 -5,2 -8,3 -3,1 -4,1 -7,3 -8,3 -29,16 -35,23l-11 9c-7,-10 -35,-28 -45,-32 -42,-18 -79,-19 -121,-4 -12,4 -29,14 -38,22 -2,1 -4,3 -5,4z"/>
    <path class="fil8" d="M1648 1895l0 104c0,10 8,18 16,20 4,2 50,1 62,1 5,0 6,-1 6,4 0,60 0,121 0,181l0 218c0,10 -2,28 1,35 3,8 11,15 22,15l100 0c12,0 22,-11 22,-23l0 -430 60 0c5,0 10,-4 13,-7 3,-3 6,-9 6,-15l0 -102c0,-14 -11,-23 -26,-23l-54 0 0 -94c0,-12 -9,-20 -23,-20 -9,0 -26,11 -33,19 -4,4 -7,7 -11,11 -16,22 -31,46 -55,63l-6 4c-1,0 -2,1 -3,1l-11 5c-17,7 -26,8 -44,11 -12,1 -25,-3 -35,7 -4,4 -7,8 -7,15z"/>
   </g>
  </g>
 </g>
</svg>
